<svg width="17" height="21" viewBox="0 0 17 21" fill="none" xmlns="http://www.w3.org/2000/svg">
<path d="M7.10036 15.832C7.27615 15.9805 7.51281 16.0605 7.7427 16.0605C7.97259 16.0605 8.20924 15.9863 8.38504 15.832L14.1864 10.9291C14.5448 10.6263 14.5448 10.1406 14.1864 9.8377C13.8281 9.53484 13.2533 9.53484 12.895 9.8377L8.6555 13.4263V0.771427C8.6555 0.342857 8.24981 0 7.7427 0C7.23559 0 6.82989 0.342857 6.82989 0.771427V13.4263L2.58366 9.8377C2.2253 9.53484 1.65057 9.53484 1.29221 9.8377C0.933847 10.1406 0.933847 10.6263 1.29221 10.9291L7.10036 15.832Z" fill="white"/>
<line x1="1" y1="19.9778" x2="15.7694" y2="19.9778" stroke="white" stroke-width="2" stroke-linecap="round" stroke-linejoin="round"/>
</svg>
