<svg width="1920" height="182" viewBox="0 0 1920 182" fill="none" xmlns="http://www.w3.org/2000/svg">
<path d="M988.875 27.4548C1350.46 -31.6337 1992.52 20.5582 2192.82 37.1097L2208 45.3854L2181.97 124.222L2057.24 162.754L1052.87 182L-22 115.73V37.1097C69.1089 85.385 524.654 103.316 988.875 27.4548Z" fill="white"/>
<path fill-rule="evenodd" clip-rule="evenodd" d="M45.4135 72.4763C2.00954 74.9243 -20.6889 77.9988 -28.2944 80.0988L-28.0283 81.0627C-20.5424 78.9957 2.04957 75.9236 45.4698 73.4747C88.8691 71.027 153.037 69.2035 243.643 69.6193C380.023 70.2453 462.719 60.9407 587.621 46.8872C670.208 37.5949 771.247 26.2264 918.459 14.2795C1177.83 -6.76955 1387.22 19.5534 1560.15 41.2931C1633.83 50.5559 1700.89 58.9867 1762.38 62.5664C1860.51 68.2791 1923.96 57.4935 1965.73 45.9137C1983.55 40.9738 1997.42 35.8899 2008.33 31.8901C2010.21 31.2029 2011.99 30.5477 2013.7 29.9307C2019.52 27.8248 2024.36 26.1706 2028.46 25.2016C2032.55 24.2318 2035.84 23.9621 2038.56 24.5806L2038.78 23.6055C2035.84 22.9369 2032.38 23.2456 2028.23 24.2285C2024.07 25.2123 2019.18 26.8853 2013.36 28.9903C2011.65 29.6087 2009.86 30.2649 2007.98 30.9527C1997.07 34.9522 1983.24 40.0218 1965.46 44.95C1923.8 56.4992 1860.46 67.2747 1762.44 61.5681C1701.05 57.9941 1634.04 49.571 1560.4 40.3134C1387.44 18.571 1177.86 -7.77484 918.378 13.2828C771.075 25.237 670.018 36.6085 587.437 45.9008C462.594 59.9488 379.979 69.245 243.648 68.6193C153.028 68.2034 88.8383 70.0271 45.4135 72.4763Z" fill="#E9E4DC"/>
<path d="M-28.2944 80.0988L-28.7764 80.2319L-28.9095 79.7499L-28.4275 79.6169L-28.2944 80.0988ZM45.4135 72.4763L45.4416 72.9755L45.4135 72.4763ZM-28.0283 81.0627L-27.8952 81.5447L-28.3772 81.6778L-28.5102 81.1958L-28.0283 81.0627ZM45.4698 73.4747L45.4979 73.9739L45.4698 73.4747ZM243.643 69.6193L243.641 70.1193L243.643 69.6193ZM587.621 46.8872L587.565 46.3904L587.621 46.8872ZM918.459 14.2795L918.5 14.7779L918.459 14.2795ZM1560.15 41.2931L1560.21 40.797L1560.15 41.2931ZM1762.38 62.5664L1762.35 63.0656L1762.38 62.5664ZM1965.73 45.9137L1965.86 46.3955L1965.73 45.9137ZM2008.33 31.8901L2008.5 32.3596L2008.5 32.3596L2008.33 31.8901ZM2013.7 29.9307L2013.53 29.4605L2013.7 29.9307ZM2028.46 25.2016L2028.34 24.715L2028.46 25.2016ZM2038.56 24.5806L2039.05 24.6913L2038.94 25.179L2038.45 25.0682L2038.56 24.5806ZM2038.78 23.6055L2038.9 23.1179L2039.38 23.2286L2039.27 23.7162L2038.78 23.6055ZM2028.23 24.2285L2028.34 24.715L2028.23 24.2285ZM2013.36 28.9903L2013.53 29.4605L2013.36 28.9903ZM2007.98 30.9527L2007.81 30.4833L2007.98 30.9527ZM1965.46 44.95L1965.33 44.4682L1965.46 44.95ZM1762.44 61.5681L1762.41 62.0673L1762.44 61.5681ZM1560.4 40.3134L1560.33 40.8095L1560.4 40.3134ZM918.378 13.2828L918.419 13.7812L918.378 13.2828ZM587.437 45.9008L587.493 46.3977L587.437 45.9008ZM243.648 68.6193L243.65 68.1193L243.648 68.6193ZM-28.4275 79.6169C-20.7622 77.5003 1.98951 74.4246 45.3853 71.9771L45.4416 72.9755C2.02956 75.424 -20.6157 78.4973 -28.1614 80.5808L-28.4275 79.6169ZM-28.5102 81.1958L-28.7764 80.2319L-27.8125 79.9657L-27.5463 80.9297L-28.5102 81.1958ZM45.4979 73.9739C2.06957 76.4233 -20.4691 79.4942 -27.8952 81.5447L-28.1614 80.5808C-20.6157 78.4973 2.02956 75.424 45.4416 72.9755L45.4979 73.9739ZM243.641 70.1193C153.042 69.7035 88.8845 71.5269 45.4979 73.9739L45.4416 72.9755C88.8537 70.527 153.033 68.7034 243.646 69.1193L243.641 70.1193ZM587.677 47.3841C462.772 61.4379 380.052 70.7454 243.641 70.1193L243.646 69.1193C379.995 69.7451 462.666 60.4435 587.565 46.3904L587.677 47.3841ZM918.5 14.7779C771.295 26.7241 670.262 38.0919 587.677 47.3841L587.565 46.3904C670.153 37.0979 771.199 25.7287 918.419 13.7812L918.5 14.7779ZM1560.08 41.7891C1387.16 20.0498 1177.82 -6.26664 918.5 14.7779L918.419 13.7812C1177.85 -7.27246 1387.28 19.0571 1560.21 40.797L1560.08 41.7891ZM1762.35 63.0656C1700.84 59.4847 1633.76 51.0515 1560.08 41.7891L1560.21 40.797C1633.89 50.0604 1700.94 58.4887 1762.41 62.0673L1762.35 63.0656ZM1965.86 46.3955C1924.04 57.9906 1860.53 68.7813 1762.35 63.0656L1762.41 62.0673C1860.48 67.7769 1923.88 56.9963 1965.6 45.4319L1965.86 46.3955ZM2008.5 32.3596C1997.59 36.3598 1983.7 41.4498 1965.86 46.3955L1965.6 45.4319C1983.39 40.4978 1997.25 35.42 2008.16 31.4207L2008.5 32.3596ZM2013.87 30.4008C2012.16 31.0174 2010.38 31.6723 2008.5 32.3596L2008.16 31.4207C2010.03 30.7335 2011.82 30.0779 2013.53 29.4605L2013.87 30.4008ZM2028.57 25.6881C2024.51 26.6497 2019.69 28.2946 2013.87 30.4008L2013.53 29.4605C2019.35 27.3551 2024.22 25.6914 2028.34 24.715L2028.57 25.6881ZM2038.45 25.0682C2035.84 24.4747 2032.64 24.7249 2028.57 25.6881L2028.34 24.715C2032.46 23.7387 2035.84 23.4495 2038.67 24.093L2038.45 25.0682ZM2039.27 23.7162L2039.05 24.6913L2038.08 24.4699L2038.3 23.4948L2039.27 23.7162ZM2028.11 23.742C2032.29 22.7525 2035.84 22.4243 2038.9 23.1179L2038.67 24.0931C2035.84 23.4495 2032.46 23.7387 2028.34 24.715L2028.11 23.742ZM2013.19 28.5202C2019.01 26.4155 2023.92 24.7332 2028.11 23.742L2028.34 24.715C2024.22 25.6914 2019.35 27.3551 2013.53 29.4605L2013.19 28.5202ZM2007.81 30.4833C2009.69 29.7955 2011.48 29.139 2013.19 28.5202L2013.53 29.4605C2011.82 30.0785 2010.03 30.7343 2008.15 31.4222L2007.81 30.4833ZM1965.33 44.4682C1983.09 39.5458 1996.9 34.4823 2007.81 30.4833L2008.15 31.4222C1997.24 35.4221 1983.4 40.4978 1965.6 45.4319L1965.33 44.4682ZM1762.47 61.069C1860.44 66.7725 1923.73 56.0021 1965.33 44.4682L1965.6 45.4319C1923.88 56.9963 1860.48 67.7769 1762.41 62.0673L1762.47 61.069ZM1560.46 39.8173C1634.11 49.0755 1701.09 57.4961 1762.47 61.069L1762.41 62.0673C1701 58.4921 1633.97 50.0666 1560.33 40.8095L1560.46 39.8173ZM918.338 12.7844C1177.87 -8.27775 1387.5 18.0746 1560.46 39.8173L1560.33 40.8095C1387.38 19.0673 1177.84 -7.27193 918.419 13.7812L918.338 12.7844ZM587.382 45.404C669.963 36.1115 771.027 24.7393 918.338 12.7844L918.419 13.7812C771.124 25.7347 670.072 37.1055 587.493 46.3977L587.382 45.404ZM243.65 68.1193C379.95 68.7449 462.541 59.4517 587.382 45.404L587.493 46.3977C462.647 60.446 380.008 69.7452 243.646 69.1193L243.65 68.1193ZM45.3853 71.9771C88.8229 69.5272 153.023 67.7034 243.65 68.1193L243.646 69.1193C153.033 68.7034 88.8537 70.527 45.4416 72.9755L45.3853 71.9771Z" fill="#B69970"/>
</svg>
