<?xml version="1.0" encoding="utf-8"?>
<!-- Generator: Adobe Illustrator 23.1.0, SVG Export Plug-In . SVG Version: 6.00 Build 0)  -->
<svg version="1.1" id="Слой_1" xmlns="http://www.w3.org/2000/svg" xmlns:xlink="http://www.w3.org/1999/xlink" x="0px" y="0px"
	 viewBox="0 0 1920 151.1" style="enable-background:new 0 0 1920 151.1;" xml:space="preserve">
<style type="text/css">
	.st0{fill-rule:evenodd;clip-rule:evenodd;fill:#B69970;}
	.st1{fill-rule:evenodd;clip-rule:evenodd;fill:#FFFFFF;}
</style>
<path class="st0" d="M1993.9-818.2c-227.8-19.2-674.9-57-1005-4.5C524.7-748.9,69.1-766.3-22-813.3v48.5h-9V69.2l14,10.6
	c22.2,2.5,49.2,6,80.1,9.9c226.4,28.6,662.6,83.7,955.9,17.3c428-96.9,848-74,932-12.3v-784.9l36.2-0.7l54.7-37.5l26-76.7l-15.2-8.1
	C2035.4-814.7,2015.6-816.4,1993.9-818.2z"/>
<path class="st1" d="M-170.6,67.6C30.9,96.5,595.8,147.2,962,75.9c235.3-45.8,467.6-59.1,652.4-52.3c92.4,3.4,172.9,11.9,236,23.9
	c31.5,6,58.7,12.9,80.9,20.4c22.1,7.6,39.3,15.8,50.7,24.6l-1.2,1.6c-11.1-8.6-28-16.8-50.1-24.3c-22-7.5-49.1-14.4-80.6-20.3
	c-62.9-11.9-143.4-20.4-235.7-23.8c-184.6-6.8-416.8,6.5-652,52.3C595.7,149.2,30.2,98.4-171.1,69.5l-0.3,0l-0.2-0.2l-15-11.9
	l1.2-1.6L-170.6,67.6z"/>
<path class="st1" d="M-46.5-805.5c94.7,15.4,274.8,37.2,474.6,46.8c199.9,9.5,419.4,6.7,592.5-27.1
	c222.4-43.4,441.5-54.4,615.6-45.7c87,4.4,162.8,13.6,222.1,26.2c29.6,6.3,55.2,13.4,75.9,21.2c20.8,7.8,36.8,16.2,47.4,25.1
	l-1.3,1.5c-10.4-8.7-26.2-17.1-46.8-24.8c-20.6-7.7-46.1-14.9-75.7-21.1c-59.2-12.6-134.8-21.8-221.8-26.2
	c-173.9-8.7-392.8,2.3-615.1,45.7c-173.3,33.8-393,36.6-593,27.1c-200-9.5-380.4-31.4-475.1-46.8l-0.3,0l-0.2-0.2l-14-12.1l1.3-1.5
	L-46.5-805.5z"/>
</svg>
