<?xml version="1.0" encoding="utf-8"?>
<!-- Generator: Adobe Illustrator 23.1.0, SVG Export Plug-In . SVG Version: 6.00 Build 0)  -->
<svg version="1.1" id="Слой_1" xmlns="http://www.w3.org/2000/svg" xmlns:xlink="http://www.w3.org/1999/xlink" x="0px" y="0px"
	 viewBox="0 0 1920 137.9" style="enable-background:new 0 0 1920 137.9;" xml:space="preserve">
<style type="text/css">
	.st0{fill-rule:evenodd;clip-rule:evenodd;fill:#B69970;}
	.st1{fill-rule:evenodd;clip-rule:evenodd;fill:#FFFFFF;}
</style>
<path class="st0" d="M1993.9,52.7c-227.8-19.2-674.9-57-1005-4.5C524.7,122,69.1,104.6-22,57.6v48.5h-9v833.9l14,10.6
	c22.2,2.5,49.2,6,80.1,9.9c226.4,28.6,662.6,83.7,955.9,17.3c428-96.9,848-74,932-12.3V180.6l36.2-0.7l54.7-37.5l26-76.7l-15.2-8.1
	C2035.4,56.2,2015.6,54.6,1993.9,52.7z"/>
<path class="st1" d="M-46.5,65.4c94.7,15.4,274.8,37.2,474.6,46.8c199.9,9.5,419.4,6.7,592.5-27.1c222.4-43.4,441.5-54.4,615.6-45.7
	c87,4.4,162.8,13.6,222.1,26.2c29.6,6.3,55.2,13.4,75.9,21.2c20.8,7.8,36.8,16.2,47.4,25.1l-1.3,1.5c-10.4-8.7-26.2-17.1-46.8-24.8
	c-20.6-7.7-46.1-14.9-75.7-21.1C1798.6,54.9,1723,45.7,1636,41.3c-173.9-8.7-392.8,2.3-615.1,45.7c-173.3,33.8-393,36.6-593,27.1
	C228,104.6,47.6,82.8-47.1,67.3l-0.3,0l-0.2-0.2l-14-12.1l1.3-1.5L-46.5,65.4z"/>
</svg>
