<svg width="26" height="25" viewBox="0 0 26 25" fill="none" xmlns="http://www.w3.org/2000/svg">
<path d="M10.7567 0.0984239C10.818 0.032808 10.9099 0 11.0325 0C11.2164 0 11.3696 0.131232 11.4922 0.393696C11.6148 0.656164 11.5842 0.853015 11.4003 0.984251C7.17114 4.79002 4.71947 8.85827 4.04526 13.189C3.98397 13.5827 3.95332 14.0748 3.95332 14.6654C3.95332 15.1903 3.98397 15.584 4.04526 15.8465C4.65818 15.3215 5.42433 15.0591 6.34371 15.0591C7.75342 15.0591 8.85667 15.5512 9.65347 16.5354C10.4503 17.4541 10.8487 18.5696 10.8487 19.8819C10.8487 21.3255 10.389 22.5394 9.46959 23.5236C8.55021 24.5079 7.26308 25 5.6082 25C3.83074 25 2.45167 24.4095 1.471 23.2283C0.490335 22.0472 0 20.374 0 18.2087C0 17.0932 0.122584 16.0105 0.367751 14.9606C0.858086 12.4016 2.02263 9.80971 3.86139 7.18504C5.76143 4.49475 8.05988 2.13255 10.7567 0.0984239ZM25.1909 0.0984239C25.2522 0.032808 25.3442 0 25.4668 0C25.6506 0 25.8039 0.131232 25.9265 0.393696C26.049 0.656164 26.0184 0.853015 25.8345 0.984251C21.6054 4.79002 19.1537 8.85827 18.4795 13.189C18.4182 13.5827 18.3876 14.0748 18.3876 14.6654C18.3876 15.1903 18.4182 15.584 18.4795 15.8465C19.0924 15.3215 19.8586 15.0591 20.7779 15.0591C22.1876 15.0591 23.2909 15.5512 24.0877 16.5354C24.8845 17.4541 25.2829 18.5696 25.2829 19.8819C25.2829 21.3255 24.8232 22.5394 23.9038 23.5236C22.9844 24.5079 21.6973 25 20.0424 25C18.265 25 16.8859 24.4095 15.9052 23.2283C14.9246 22.0472 14.4342 20.374 14.4342 18.2087C14.4342 17.0932 14.5568 16.0105 14.802 14.9606C15.2923 12.4016 16.4569 9.80971 18.2956 7.18504C20.1957 4.49475 22.4941 2.13255 25.1909 0.0984239Z" fill="#B69970"/>
</svg>
